<svg width="435" height="139" viewBox="0 0 435 139" fill="none" xmlns="http://www.w3.org/2000/svg">
<g filter="url(#filter0_i_221_27)">
<path d="M392.063 42.3776C392.453 42.1176 392.843 41.8576 393.363 41.4676C394.403 40.6877 395.443 40.0377 396.613 39.3877C396.743 39.3877 396.873 39.3877 397.003 39.2577C399.343 37.9578 401.163 35.488 402.203 32.3682L400.253 33.5381C397.263 35.228 394.403 36.9179 391.413 38.6078C389.074 41.7276 386.214 44.4574 383.094 46.7973C386.214 45.4974 389.204 44.1975 392.063 42.2476V42.3776Z" fill="#464E5E"/>
<path d="M393.493 41.8575C393.103 42.1175 392.713 42.3775 392.193 42.7675C389.073 44.8474 385.563 46.2773 382.184 47.7072C380.234 49.1371 378.154 50.567 376.204 51.8669C376.204 52.1269 376.204 52.3869 376.204 52.6469C376.204 53.6868 375.684 54.7268 375.164 55.5067C375.554 55.5067 375.944 55.5067 376.334 55.5067C376.464 55.5067 376.724 55.5067 376.854 55.5067C378.544 54.9867 380.234 54.4668 381.793 53.9468C385.823 52.7769 389.983 51.477 393.753 49.7871C399.863 47.0572 404.412 43.0275 406.622 38.2178C403.372 38.2178 399.732 38.2178 396.743 39.7777C395.573 40.2977 394.533 41.0776 393.493 41.7276V41.8575Z" fill="#464E5E"/>
<path d="M370.225 31.1981C370.355 31.5881 370.615 32.1081 370.745 32.4981C371.784 34.8379 372.825 37.1778 372.955 39.6476C372.955 41.8575 372.435 44.0674 371.915 46.1472C372.565 47.9671 372.694 49.787 372.434 51.6069H372.565C372.565 51.6069 372.565 51.6069 372.565 51.4769C375.164 46.5372 378.154 40.8176 378.024 34.4479C378.024 29.3783 375.944 24.5685 373.865 19.8888C372.305 16.379 370.745 12.9993 368.145 10.3994C366.195 12.9993 365.675 17.029 366.455 21.3187C367.105 24.6985 368.665 27.9483 370.095 31.1981H370.225Z" fill="#464E5E"/>
<path d="M397.912 47.967C396.612 48.747 395.313 49.527 393.753 50.1769C389.853 51.9968 385.693 53.1667 381.793 54.3366C380.493 54.7266 379.323 55.1166 378.023 55.5066C382.053 57.4564 386.473 56.8065 390.893 56.1565H391.542C397.392 55.1166 403.242 54.7266 409.091 54.5966C408.701 53.4267 407.792 52.2568 406.232 51.0868C403.762 49.267 400.902 48.227 398.042 48.097L397.912 47.967Z" fill="#464E5E"/>
<path d="M373.344 51.477L373.994 51.217C374.904 50.9571 375.554 51.087 375.944 51.607C381.793 47.5772 388.553 43.0275 392.583 36.268C394.663 32.7582 395.963 28.8584 397.003 25.0886C394.923 25.0886 392.713 26.1286 390.243 28.2084C387.253 30.6783 384.783 33.7981 382.833 37.1779C381.143 42.7676 377.633 47.9672 373.344 51.347V51.477Z" fill="#464E5E"/>
<path d="M367.363 61.4864C368.013 61.0964 368.663 60.5764 369.313 60.1864C371.653 58.4965 374.122 56.8067 376.982 56.0267C376.722 56.0267 376.462 56.0267 376.072 56.0267C375.552 56.0267 375.162 56.0267 374.642 56.0267C372.692 55.6367 370.353 56.2867 368.923 57.5866C366.323 60.3164 362.943 62.7863 358.523 65.1262C362.033 65.1262 365.283 63.3063 367.493 61.8764L367.363 61.4864Z" fill="#464E5E"/>
<path d="M374.645 55.3768C375.164 54.5968 375.555 53.5569 375.685 52.6469C375.685 52.387 375.685 52.127 375.685 51.867C375.425 51.347 374.515 51.477 374.125 51.607L372.435 52.127C371.785 53.5569 370.875 54.9868 369.705 56.2867C371.135 55.5068 372.955 55.1168 374.645 55.5067V55.3768Z" fill="#464E5E"/>
<path d="M408.964 107.374C409.224 107.244 409.483 106.984 409.483 106.724C409.613 106.204 409.223 105.814 408.833 105.554C408.833 105.554 408.574 105.554 408.574 105.424C405.324 103.864 400.904 104.904 397.654 105.944C399.994 106.984 402.464 107.633 405.064 107.893C406.364 108.023 407.793 108.023 409.093 107.374H408.964Z" fill="#464E5E"/>
<path d="M371.653 46.5374C369.314 50.6971 366.324 54.4669 362.814 57.4567C362.424 57.7167 362.164 57.9767 361.774 58.3666C359.694 60.1865 357.484 62.0064 356.574 64.7362C356.964 64.7362 357.354 64.7362 357.614 64.7362C364.764 61.0965 369.573 56.9367 371.913 51.997C372.303 50.3071 372.173 48.3572 371.523 46.5374H371.653Z" fill="#464E5E"/>
<path d="M392.193 59.9265C394.403 60.5765 396.743 61.4864 398.823 62.5264C401.423 63.6963 404.153 64.8662 406.883 65.3862C404.543 60.1865 399.343 56.4167 394.014 56.1567C393.234 56.1567 392.323 56.4167 391.543 56.5467H390.894C387.384 57.1967 383.874 57.7167 380.494 56.9367C382.834 58.2366 385.564 58.6266 388.164 59.1466C389.464 59.4066 390.894 59.6665 392.193 60.0565V59.9265Z" fill="#464E5E"/>
<path d="M342.667 36.2681C342.147 38.608 341.367 40.8178 340.457 42.8977C339.288 45.2376 338.117 46.6675 336.688 47.5774C337.727 47.5774 339.027 47.3174 339.677 46.6675C340.587 45.8875 341.237 44.8476 341.887 43.8076L350.207 30.6785C347.087 31.3284 344.357 33.4083 342.797 36.1381L342.667 36.2681Z" fill="#464E5E"/>
<path d="M369.443 85.7949C369.833 85.4049 370.093 84.625 369.703 84.235C369.703 84.105 369.443 83.975 369.313 83.845C369.053 83.715 368.794 83.585 368.404 83.585C363.594 82.5451 358.654 83.585 354.494 86.3149C358.394 86.9648 363.334 87.7448 367.754 86.5749C368.404 86.4449 368.923 86.1849 369.313 85.7949H369.443Z" fill="#464E5E"/>
<path d="M378.415 34.5779C378.415 40.6875 375.685 46.2772 373.215 51.0869C377.505 47.5771 380.884 42.5074 382.574 37.0478C384.264 31.4581 384.394 25.2185 382.964 19.7588C380.234 22.7486 378.544 26.6484 378.024 30.9381C378.284 32.108 378.415 33.408 378.415 34.5779Z" fill="#464E5E"/>
<path d="M433.922 135.842C433.272 134.282 431.972 133.112 430.932 132.332C427.292 129.602 421.572 128.172 419.232 127.782C422.482 130.902 425.992 133.762 429.632 136.232C430.672 136.882 431.582 137.532 432.622 137.532C433.142 137.532 433.922 137.402 434.052 136.882C434.052 136.622 434.052 136.232 433.922 135.842Z" fill="#464E5E"/>
<path d="M0.787109 137.532C20.2859 119.983 39.6547 116.083 64.4832 115.563C76.4425 115.303 88.5318 115.823 100.231 116.343C119.99 117.253 140.398 118.163 160.547 115.043C176.926 112.573 193.305 108.414 209.034 104.254C215.794 102.564 222.684 100.744 229.573 99.1842C262.071 91.5146 293.529 90.2147 325.767 95.4144C349.426 99.1842 373.084 106.334 397.783 117.253C379.454 108.804 362.295 102.304 345.786 97.7542C322.647 91.3846 299.509 88.3948 277.28 88.9148C280.53 86.8349 283.91 85.015 287.42 83.4551C299.119 78.2554 311.598 77.0855 323.817 76.0456C335.257 75.0057 347.086 73.0558 357.225 65.3862C356.965 65.3862 356.835 65.3862 356.575 65.3862C356.575 65.3862 356.575 65.3862 356.575 65.2562C356.575 64.9962 356.705 64.8663 356.835 64.7363C347.736 70.5859 335.517 73.9657 320.568 74.7457H319.658C314.848 75.0057 310.298 75.2656 305.748 75.7856C305.748 75.7856 305.748 75.6556 305.748 75.5256C317.058 69.416 328.107 59.9266 337.207 48.6173C337.077 48.6173 336.816 48.6173 336.687 48.6173C336.687 48.6173 336.687 48.6172 336.687 48.4873C336.687 48.4873 336.687 48.3573 336.687 48.2273C326.937 61.7465 313.288 72.1458 298.339 77.4755C296.519 77.8655 294.699 78.3854 293.009 78.9054C292.099 79.1654 291.189 79.4254 290.279 79.8154C283.39 82.2852 277.02 85.665 271.171 89.9547H270.65C254.661 90.8647 239.453 93.9845 226.713 96.9743C221.124 98.2742 215.534 99.5742 210.074 100.874C202.015 102.824 193.695 104.904 185.376 106.594H184.596C169.907 109.844 155.998 112.833 141.179 113.093C126.489 113.353 111.15 112.703 96.8511 111.923H94.6413C77.4824 110.883 59.8035 109.974 42.6445 113.093C32.1151 115.043 16.906 118.813 7.15659 128.952C4.29677 131.942 2.34708 135.062 1.17715 138.312L0.787109 137.532Z" fill="#464E5E"/>
<path d="M389.332 129.992C389.202 129.212 388.682 128.562 388.162 127.912C385.822 125.313 382.702 123.103 379.322 121.803C380.232 126.612 383.612 130.902 387.512 131.812C387.902 131.812 388.292 131.942 388.552 131.812C389.202 131.552 389.462 130.642 389.332 129.992Z" fill="#464E5E"/>
<path d="M261.942 129.472C275.461 125.443 289.37 121.153 303.539 120.633C298.989 118.943 294.18 117.903 290.02 117.123C270.521 113.613 250.503 113.483 230.874 116.343C227.234 116.863 223.594 117.513 219.954 118.163C213.065 119.463 205.915 120.763 198.766 121.153C187.066 121.933 175.237 120.503 163.798 119.073C156.778 118.163 149.629 117.383 142.609 116.993C139.229 117.123 135.849 117.253 132.6 117.253C159.898 128.172 193.696 141.432 226.844 137.662C238.803 136.232 250.632 132.722 261.942 129.212V129.472Z" fill="#464E5E"/>
<path d="M334.476 118.813C336.556 121.023 339.026 122.193 341.366 122.063C342.016 122.063 342.796 121.673 343.056 121.283C343.186 121.023 343.316 120.763 343.316 120.503C343.316 119.983 342.926 119.593 342.666 119.203C339.806 115.693 334.996 112.963 330.316 112.313C331.486 114.523 332.786 116.863 334.606 118.683L334.476 118.813Z" fill="#464E5E"/>
<path d="M347.085 22.4888C347.085 22.7488 346.825 23.0088 346.695 23.3988C345.785 25.4787 344.876 27.6885 343.966 29.7684L343.446 31.0683C343.446 32.6282 343.186 34.0581 342.926 35.4881C344.096 33.6682 345.786 32.1083 347.735 31.1983C347.735 31.1983 347.735 31.1983 347.735 31.0683C350.855 25.0887 352.675 18.1991 352.935 11.0496C351.765 13.6494 350.595 16.2492 349.556 18.7191C348.906 20.149 348.256 21.5789 347.216 22.4888H347.085Z" fill="#464E5E"/>
<path d="M336.819 40.5576C336.819 41.5975 336.818 42.8974 336.688 44.0674C336.688 44.9773 336.689 45.7573 336.559 46.6672C336.559 46.7972 336.559 47.0572 336.559 47.1872C337.859 46.4072 339.028 44.8473 340.198 42.6374C342.408 38.2177 343.318 32.8881 343.188 27.8184C341.628 29.6382 340.198 31.7181 338.898 33.798C338.378 34.7079 337.728 35.6179 337.468 36.7878C337.078 37.9577 337.078 39.3876 336.948 40.6876L336.819 40.5576Z" fill="#464E5E"/>
<path d="M340.716 30.4184C340.716 29.1185 340.456 27.6886 340.066 26.3887C339.806 27.0386 339.416 27.6886 339.156 28.3386C338.766 29.1185 338.376 29.8985 338.116 30.8084C337.596 32.2383 337.336 34.0582 337.596 35.7481C337.986 34.9682 338.376 34.3182 338.766 33.6682C339.416 32.6283 340.196 31.4584 340.976 30.4184H340.716Z" fill="#464E5E"/>
<path d="M349.946 7.79962C350.466 12.8693 348.776 17.679 347.086 21.8387C347.996 20.9288 348.516 19.7589 349.036 18.5889C350.336 15.7291 351.506 12.9993 352.806 10.1395C352.806 7.53962 352.806 4.80977 352.286 2.20993C352.286 1.68996 352.156 1.17003 351.766 0.780052C351.376 0.390076 350.856 0.26006 350.466 0.390052C349.946 0.390052 349.426 0.650028 348.906 0.910012C348.906 2.33993 349.166 3.76986 349.426 5.19977C349.556 6.10972 349.816 7.01966 349.816 7.79962H349.946Z" fill="#464E5E"/>
<path d="M338.635 28.0783C339.025 27.2983 339.415 26.5184 339.675 25.7384C339.675 25.7384 339.675 25.7384 339.805 25.7384C339.805 25.7384 339.805 25.7384 339.935 25.7384C340.455 27.1683 340.715 28.5983 340.845 30.0282C341.495 29.1182 342.275 28.2083 342.925 27.2983C342.925 27.2983 342.925 27.2983 343.055 27.2983C343.055 27.2983 343.055 27.2983 343.055 27.4283C343.055 28.3383 343.055 29.2482 343.055 30.1581L343.315 29.6382C344.225 27.5583 345.134 25.3484 346.044 23.2686C347.864 18.8488 350.074 13.5192 349.424 7.92953C349.424 7.01958 349.164 6.10964 349.034 5.32968C348.774 4.02976 348.514 2.59983 348.514 1.16992C347.475 1.81988 346.564 2.85981 346.044 3.63976C341.105 10.3994 339.675 19.6288 338.375 28.5983C338.375 28.4683 338.505 28.3383 338.635 28.0783Z" fill="#464E5E"/>
<path d="M235.551 93.7244C260.38 86.7049 284.818 75.6555 308.347 60.8364C304.837 61.0964 301.198 61.0964 297.818 61.0964C295.348 61.0964 292.748 61.0964 290.148 61.0964C265.71 62.1364 241.921 75.0056 226.582 95.6743C229.442 95.0244 232.562 94.3744 235.681 93.7244H235.551Z" fill="#464E5E"/>
<path d="M0.788147 137.922C3.51798 130.252 10.1474 124.402 17.167 120.633C23.9265 116.863 31.4661 114.783 39.0057 113.223C57.4646 109.323 76.4433 110.363 95.1622 111.273C104.782 111.793 114.271 112.183 123.891 112.443C133.38 112.703 142.869 112.833 152.229 111.793C161.328 110.883 170.428 109.063 179.397 107.243C188.757 105.294 197.986 103.214 207.216 100.874C225.804 96.3241 244.523 91.6444 263.632 89.8245C265.972 89.5645 268.312 89.4345 270.651 89.3045C271.041 89.3045 271.041 88.5245 270.651 88.6545C251.413 89.8244 232.694 93.9842 213.975 98.5339C195.256 103.084 176.407 107.893 157.298 110.493C147.679 111.793 138.06 111.923 128.44 111.793C118.691 111.793 108.941 111.273 99.062 110.753C79.9531 109.843 60.7145 108.413 41.7356 111.923C27.4365 114.523 11.1875 119.593 2.73803 132.462C1.69809 134.152 0.788147 135.972 0.138186 137.792C0.00819436 138.182 0.658155 138.442 0.788147 137.922Z" fill="#464E5E"/>
<path d="M277.15 89.0444C296.779 88.6545 316.538 90.8643 335.646 95.4141C354.365 99.8338 372.434 106.333 389.983 114.003C399.732 118.293 409.352 122.972 418.841 127.912C419.231 128.172 419.621 127.522 419.231 127.262C402.332 118.423 384.913 110.363 366.844 103.994C348.516 97.3639 329.667 92.5542 310.298 90.0844C299.249 88.6545 288.199 88.1345 277.15 88.3945C276.76 88.3945 276.76 89.0444 277.15 89.0444Z" fill="#464E5E"/>
<path d="M417.413 126.482C392.584 113.873 366.456 103.734 339.158 97.884C312.379 92.1644 284.821 90.7345 257.522 94.1143C227.884 97.7541 199.546 107.763 170.168 113.353C154.569 116.343 138.97 117.383 122.981 117.123C107.382 116.863 91.7825 115.693 76.1835 115.433C63.3143 115.303 50.3149 115.433 37.7057 118.163C26.5264 120.503 16.1272 125.182 7.02778 132.072C4.68792 133.892 2.348 135.712 0.138136 137.792C-0.25184 138.052 0.268001 138.572 0.657978 138.312C9.62743 130.252 20.0269 124.012 31.5962 120.503C43.1654 117.123 55.3848 116.343 67.4741 116.083C98.0222 115.693 128.7 120.243 159.118 115.823C188.627 111.533 216.965 101.264 246.343 96.3242C273.641 91.7744 301.72 91.7744 329.018 96.5841C356.186 101.394 382.445 110.493 407.403 122.323C410.653 123.882 413.773 125.442 417.023 127.002C417.413 127.262 417.803 126.612 417.413 126.352V126.482Z" fill="#464E5E"/>
<path d="M131.691 117.643C153.659 126.352 176.148 135.192 199.807 138.052C211.246 139.481 222.815 139.352 234.254 137.272C245.434 135.192 256.223 131.682 267.013 128.562C279.232 124.922 291.711 121.543 304.58 121.153C304.97 121.153 304.97 120.633 304.58 120.503C299.771 118.553 294.701 117.513 289.631 116.603C284.431 115.693 279.232 115.043 273.902 114.523C263.243 113.613 252.583 113.613 242.054 114.523C231.525 115.433 221.255 117.643 210.726 119.333C205.396 120.243 199.937 120.763 194.477 120.893C189.147 120.893 183.687 120.763 178.358 120.243C172.378 119.723 166.399 118.943 160.419 118.163C154.44 117.513 148.59 116.993 142.61 116.473C142.22 116.473 142.22 117.123 142.61 117.123C147.81 117.513 153.009 117.903 158.209 118.553C163.539 119.203 168.868 119.853 174.198 120.373C184.857 121.543 195.387 121.933 206.046 120.503C216.576 119.073 226.975 116.603 237.634 115.433C248.164 114.263 258.823 114.003 269.482 114.653C275.592 115.043 281.572 115.693 287.681 116.733C293.401 117.643 298.99 118.813 304.45 120.893C304.45 120.633 304.45 120.373 304.45 120.243C281.832 121.023 260.903 130.642 238.934 135.452C227.625 137.922 216.186 138.832 204.616 137.792C192.787 136.752 181.088 134.152 169.648 130.642C156.779 126.742 144.3 121.803 131.691 116.863C131.301 116.733 131.041 117.383 131.561 117.513L131.691 117.643Z" fill="#464E5E"/>
<path d="M226.453 96.194C233.603 86.5746 242.572 78.385 252.972 72.4054C262.981 66.5558 274.16 62.786 285.73 61.6161C293.529 60.8361 301.329 61.6161 309.128 60.8361C309.128 60.5761 309.128 60.4461 308.998 60.1862C291.189 71.4955 272.211 81.1149 252.322 88.1344C246.862 90.0843 241.142 91.9042 235.553 93.4641C235.163 93.4641 235.293 94.2441 235.683 94.1141C255.961 88.3944 275.33 80.2049 293.789 69.9356C298.989 67.0757 304.189 63.9559 309.258 60.7061C309.518 60.5761 309.388 60.0562 309.128 60.0562C301.849 60.7061 294.569 60.0562 287.42 60.5762C281.7 61.0961 275.98 62.1361 270.391 63.826C259.081 67.3357 248.682 73.1854 239.713 80.7249C234.513 85.1447 229.963 90.0843 225.933 95.544C225.673 95.934 226.323 96.194 226.583 95.934L226.453 96.194Z" fill="#464E5E"/>
<path d="M354.108 86.0547C341.239 86.0547 328.5 87.7446 316.021 90.8644C315.631 90.8644 315.761 91.6444 316.15 91.5144C328.5 88.3946 341.239 86.8346 354.108 86.7046C354.498 86.7046 354.498 86.0547 354.108 86.0547Z" fill="#464E5E"/>
<path d="M304.061 93.4645C311.99 100.874 320.7 107.244 330.059 112.573C330.449 112.833 330.839 112.183 330.449 111.923C321.089 106.724 312.38 100.354 304.581 92.9445C304.191 92.6845 303.801 93.0745 304.061 93.4645Z" fill="#464E5E"/>
<path d="M352.547 101.784C360.736 109.323 369.446 116.213 379.065 121.933C379.455 122.193 379.845 121.543 379.455 121.283C369.966 115.563 361.256 108.673 353.197 101.264C352.807 101.004 352.417 101.394 352.677 101.784H352.547Z" fill="#464E5E"/>
<path d="M374.386 107.504C381.796 105.814 389.595 105.164 397.135 106.334C397.525 106.334 397.785 105.684 397.265 105.684C389.595 104.514 381.666 105.164 374.126 106.854C373.736 106.854 373.866 107.634 374.256 107.504H374.386Z" fill="#464E5E"/>
<path d="M418.582 127.782C422.741 128.562 427.161 129.862 430.671 132.332C431.581 132.982 432.621 133.892 433.271 134.932C433.531 135.452 434.181 136.232 433.921 136.882C433.661 137.662 432.621 137.532 431.971 137.272C430.801 136.882 429.631 136.102 428.721 135.322C427.681 134.542 426.511 133.762 425.471 132.982C423.131 131.162 421.051 129.212 418.972 127.132C418.712 126.872 418.192 127.262 418.452 127.652C420.662 129.862 422.871 131.812 425.341 133.762C426.511 134.672 427.681 135.582 428.851 136.362C429.891 137.142 431.061 137.922 432.361 138.052C433.271 138.052 434.311 137.922 434.571 136.882C434.831 135.842 433.921 134.672 433.401 133.892C431.841 131.942 429.501 130.642 427.161 129.602C424.561 128.432 421.701 127.652 418.841 127.132C418.451 127.132 418.192 127.782 418.712 127.782H418.582Z" fill="#464E5E"/>
<path d="M397.264 106.333C399.214 105.683 401.164 105.163 403.244 105.033C404.284 105.033 405.324 105.033 406.364 105.033C407.274 105.163 408.314 105.423 408.964 105.943C410.264 106.983 407.924 107.763 407.014 107.763C405.844 107.763 404.804 107.763 403.634 107.503C401.424 107.113 399.214 106.463 397.264 105.553C396.874 105.423 396.484 105.943 396.874 106.203C398.824 107.113 400.774 107.763 402.854 108.153C404.674 108.543 406.754 108.803 408.574 108.153C409.224 107.893 410.004 107.373 410.004 106.593C410.004 105.943 409.354 105.423 408.704 105.163C407.014 104.384 405.194 104.254 403.374 104.384C401.164 104.514 399.084 105.163 397.005 105.813C396.615 105.943 396.744 106.593 397.134 106.463L397.264 106.333Z" fill="#464E5E"/>
<path d="M378.935 121.933C380.885 122.713 382.704 123.752 384.394 124.922C385.304 125.572 386.084 126.222 386.864 127.002C387.644 127.652 388.424 128.432 388.814 129.342C389.204 130.122 389.334 131.682 388.164 131.812C387.384 131.812 386.344 131.422 385.564 131.032C384.005 130.122 382.575 128.822 381.535 127.262C380.365 125.572 379.585 123.492 379.195 121.543C379.195 121.153 378.415 121.283 378.545 121.673C379.195 125.702 381.665 129.862 385.434 131.682C386.214 132.072 387.384 132.592 388.294 132.462C389.204 132.332 389.724 131.422 389.724 130.512C389.724 129.472 389.204 128.562 388.554 127.782C387.774 126.872 386.864 125.962 385.824 125.182C383.744 123.492 381.405 122.063 378.935 121.153C378.545 121.023 378.285 121.673 378.805 121.803L378.935 121.933Z" fill="#464E5E"/>
<path d="M354.235 86.7046C356.315 85.2747 358.655 84.2347 361.124 83.7148C363.594 83.1948 366.324 83.0648 368.794 83.7148C369.834 83.9748 369.964 85.0147 369.184 85.7947C368.664 86.1846 368.014 86.3146 367.364 86.5746C365.934 86.9646 364.504 87.0946 363.074 87.0946C360.084 87.0946 357.225 86.7046 354.365 86.1846C353.975 86.1846 353.715 86.8346 354.235 86.8346C356.965 87.3545 359.694 87.7445 362.424 87.7445C363.724 87.7445 365.024 87.7445 366.324 87.4845C367.364 87.3545 368.664 87.0946 369.574 86.4446C370.224 85.9246 370.614 85.1447 370.484 84.2347C370.224 83.3248 369.184 83.0648 368.404 82.9348C366.064 82.5448 363.724 82.5448 361.514 82.9348C358.785 83.4548 356.315 84.4947 354.105 86.0546C353.715 86.3146 354.105 86.9646 354.495 86.7046H354.235Z" fill="#464E5E"/>
<path d="M329.927 112.313C334.087 112.833 338.246 114.913 341.366 117.903C342.016 118.553 343.446 119.723 343.186 120.763C342.926 121.803 341.496 121.802 340.586 121.802C338.246 121.673 336.167 120.243 334.607 118.553C332.787 116.603 331.487 114.263 330.317 111.793C330.057 111.403 329.537 111.793 329.667 112.183C332.007 116.473 335.127 122.192 340.716 122.452C341.626 122.452 342.666 122.452 343.446 121.673C344.226 120.893 343.966 119.853 343.446 119.073C342.016 117.123 339.936 115.563 337.857 114.393C335.517 112.963 332.787 112.053 330.057 111.663C329.667 111.663 329.667 112.313 330.057 112.313H329.927Z" fill="#464E5E"/>
<path d="M356.576 63.4361C345.007 70.9756 331.098 73.0555 317.579 73.7055C315.499 73.7055 313.289 73.9655 311.209 74.0955C310.169 74.0955 309.129 74.2254 307.96 74.3554C307.05 74.3554 306.14 74.3554 305.23 74.6154C304.84 74.6154 304.97 75.3954 305.36 75.2654C306.14 75.0054 307.179 75.0054 308.089 75.0054C309.129 75.0054 310.039 74.8754 311.079 74.7454C313.029 74.6154 314.979 74.4854 316.929 74.3554C320.439 74.2254 323.949 73.9655 327.458 73.5755C334.088 72.7955 340.718 71.3656 346.957 69.0258C350.467 67.7258 353.717 66.0359 356.836 63.956C357.226 63.6961 356.836 63.0461 356.446 63.3061L356.576 63.4361Z" fill="#464E5E"/>
<path d="M270.652 89.3047C274.682 86.3149 279.101 83.715 283.651 81.6351C285.861 80.5952 288.071 79.6853 290.411 78.9053C292.881 77.9954 295.351 77.4754 297.82 76.8255C298.21 76.8255 298.08 76.0455 297.69 76.1755C295.22 76.8255 292.751 77.4754 290.281 78.2553C288.071 79.0353 285.861 79.9452 283.781 80.8552C279.102 83.0651 274.552 85.6649 270.392 88.6547C270.002 88.9147 270.392 89.5647 270.782 89.3047H270.652Z" fill="#464E5E"/>
<path d="M277.281 88.9147C282.48 85.6649 287.94 82.935 293.66 81.1151C299.25 79.2953 304.969 78.2553 310.819 77.4754C321.478 76.0455 332.397 76.0455 342.797 72.7957C348.126 71.1058 353.066 68.6359 357.486 65.2561C357.356 65.1261 357.226 64.8661 357.096 64.7361C356.706 64.9961 357.226 65.5161 357.616 65.2561C358.006 64.9961 357.486 64.4762 357.096 64.7361C356.706 64.9961 357.226 65.5161 357.616 65.2561C357.876 64.9961 357.616 64.4762 357.226 64.7361C349.036 71.1058 339.027 73.8356 328.888 75.0055C317.578 76.4354 306.139 76.6954 295.09 80.0752C288.72 82.0251 282.741 84.8849 277.021 88.3947C276.631 88.6547 277.021 89.1747 277.411 89.0447L277.281 88.9147Z" fill="#464E5E"/>
<path d="M336.039 46.5371C328.5 57.0665 318.62 65.776 307.181 71.7556C305.621 72.5355 304.061 73.3155 302.501 73.9655C300.941 74.6154 299.252 75.3954 297.562 75.9154C297.172 75.9154 297.302 76.6953 297.692 76.5653C300.551 75.7854 303.411 74.3555 306.141 72.9256C309.001 71.4956 311.861 69.8057 314.461 68.1158C319.92 64.476 324.86 60.3163 329.41 55.5066C332.01 52.7767 334.349 49.787 336.559 46.7971C336.819 46.4072 336.169 46.0172 335.909 46.4071L336.039 46.5371Z" fill="#464E5E"/>
<path d="M289.631 78.3853C289.631 78.3853 289.631 78.3853 289.631 78.5153C289.631 78.5153 289.631 78.5153 289.631 78.6453C289.631 78.6453 289.631 78.6453 289.761 78.6453C289.761 78.6453 289.761 78.6452 289.761 78.5153C289.761 78.5153 289.761 78.5152 289.761 78.3853C289.761 78.3853 289.761 78.3853 289.631 78.3853Z" fill="#464E5E"/>
<path d="M305.489 75.3955C306.139 75.2655 306.789 74.7455 307.309 74.3555C308.089 73.9656 308.868 73.4456 309.648 72.9257C311.078 72.0157 312.638 71.1057 314.068 70.0658C316.928 68.1159 319.658 65.9061 322.258 63.6962C327.848 58.8865 332.787 53.6868 337.337 47.9672C337.597 47.5772 337.077 47.0572 336.817 47.4472C332.397 52.9069 327.588 58.1065 322.258 62.7862C319.658 65.1261 316.798 67.336 313.938 69.2859C312.508 70.3258 311.079 71.2357 309.519 72.1457C308.869 72.5357 308.089 72.9256 307.439 73.4456C306.789 73.8356 305.879 74.4855 305.099 74.7455C304.709 74.7455 304.839 75.5255 305.229 75.3955H305.489Z" fill="#464E5E"/>
<path d="M371.526 45.7572C369.446 49.657 366.716 53.1668 363.336 56.2866C360.606 58.7564 357.227 60.9663 356.057 64.7361C356.057 64.8661 356.057 65.1261 356.317 65.1261C364.766 66.946 370.226 58.3665 377.635 56.2866C378.025 56.2866 377.895 55.5066 377.505 55.6366C370.226 57.5865 364.636 66.166 356.576 64.4761C356.576 64.6061 356.706 64.7361 356.836 64.8661C358.006 60.9663 361.906 58.7565 364.636 56.0266C367.626 53.1668 370.096 49.787 372.176 46.1472C372.436 45.7573 371.786 45.3673 371.526 45.7572Z" fill="#464E5E"/>
<path d="M371.395 46.1473C372.045 47.9672 372.175 49.9171 371.785 51.867C371.785 52.1269 371.915 52.3869 372.175 52.2569C372.825 52.1269 373.475 51.867 374.125 51.737C374.515 51.737 375.165 51.477 375.425 51.867C375.685 52.3869 375.425 53.2969 375.165 53.8168C374.905 54.4668 374.645 54.9868 374.255 55.5067C374.125 55.7667 374.255 56.0267 374.515 56.0267C375.555 56.0267 376.465 56.1567 377.505 56.2867C377.895 56.2867 377.895 55.6367 377.505 55.6367C376.465 55.6367 375.555 55.5068 374.515 55.3768C374.515 55.5068 374.775 55.7667 374.775 55.8967C375.295 55.2468 375.685 54.4668 375.945 53.5568C376.075 52.9069 376.335 52.127 375.945 51.477C375.555 50.957 375.035 50.957 374.385 50.957C373.605 50.957 372.695 51.347 371.915 51.607C372.045 51.737 372.175 51.867 372.305 51.997C372.695 49.9171 372.565 47.8372 371.915 45.8873C371.785 45.4973 371.135 45.6273 371.265 46.0173L371.395 46.1473Z" fill="#464E5E"/>
<path d="M336.687 47.577C336.687 45.7571 336.817 44.0672 336.947 42.3773C336.947 40.5574 336.947 38.7375 337.467 37.0476C337.987 35.3577 339.027 33.7978 339.937 32.3679C340.977 30.808 342.147 29.2481 343.447 27.6882C343.187 27.6882 343.057 27.5582 342.797 27.4282C343.057 31.198 342.667 34.8378 341.497 38.4776C340.587 41.5974 339.157 45.4971 336.167 47.317C335.777 47.577 336.167 48.097 336.557 47.967C339.547 46.1471 340.977 42.5073 342.017 39.3875C343.317 35.6177 343.707 31.458 343.447 27.4282C343.447 27.1682 343.057 26.9082 342.797 27.1682C341.627 28.5981 340.457 30.1581 339.417 31.718C338.377 33.1479 337.337 34.7078 336.687 36.5277C336.167 38.2176 336.167 40.1674 336.037 41.8573C336.037 43.8072 335.777 45.7571 335.777 47.707C335.777 48.0969 336.427 48.0969 336.427 47.707L336.687 47.577Z" fill="#464E5E"/>
<path d="M372.047 51.7366C369.057 57.8462 363.467 61.746 357.488 64.7358C357.098 64.9958 357.488 65.5158 357.878 65.3858C363.857 62.396 369.577 58.3662 372.567 52.2566C372.827 51.8666 372.177 51.4766 371.917 51.8666L372.047 51.7366Z" fill="#464E5E"/>
<path d="M374.906 55.2467C372.696 54.7267 370.096 55.2467 368.537 56.9366C368.147 57.1966 368.667 57.7165 369.057 57.4566C370.487 56.0266 372.826 55.5067 374.776 55.8967C375.166 55.8967 375.426 55.3767 374.906 55.2467Z" fill="#464E5E"/>
<path d="M342.927 36.2679C344.617 33.4081 347.346 31.4582 350.596 30.8082C350.466 30.6782 350.336 30.4183 350.206 30.2883C348.127 33.5381 346.047 36.9179 343.967 40.1677C342.927 41.7276 342.017 43.4175 340.977 44.8474C339.937 46.4073 338.507 47.5772 336.427 47.3172C336.037 47.3172 335.777 47.9672 336.297 47.9672C337.727 48.2272 339.287 47.8372 340.327 46.7973C341.757 45.3674 342.667 43.5475 343.707 41.8576C346.047 38.0878 348.517 34.3181 350.856 30.5483C350.986 30.2883 350.856 30.0283 350.466 30.0283C347.087 30.6783 344.097 32.7581 342.407 35.748C342.147 36.1379 342.797 36.5279 343.057 36.1379L342.927 36.2679Z" fill="#464E5E"/>
<path d="M341.109 30.288C341.109 28.7281 340.719 27.1682 340.199 25.7383C340.199 25.3483 339.679 25.4783 339.549 25.7383C338.769 27.5582 337.73 29.2481 337.21 31.068C336.69 32.7579 336.559 34.5778 336.949 36.2677C336.949 36.6577 337.729 36.5277 337.599 36.1377C337.339 34.4478 337.339 32.6279 337.989 30.938C338.639 29.2481 339.549 27.6882 340.199 25.9983H339.549C340.069 27.4282 340.329 28.8581 340.329 30.418C340.329 30.808 340.979 30.808 340.979 30.418L341.109 30.288Z" fill="#464E5E"/>
<path d="M338.507 29.6382C339.677 21.8387 340.587 13.5192 344.487 6.3696C345.397 4.67971 346.567 2.9898 347.997 1.68988C348.777 1.03992 350.206 0.129984 351.246 0.51996C352.416 1.03993 352.416 3.24979 352.546 4.28972C352.936 8.57946 352.807 12.9992 352.157 17.2889C351.377 21.9686 349.817 26.6484 347.607 30.9381C347.347 31.3281 347.997 31.7181 348.257 31.3281C352.677 22.8786 354.366 13.1292 353.196 3.76976C353.066 2.20986 352.937 0 350.857 0C348.907 0 347.347 1.42992 346.307 2.72984C343.707 5.97964 342.017 10.0094 340.847 14.0391C339.417 19.1088 338.637 24.3085 337.857 29.5082C337.857 29.8982 338.507 30.1581 338.507 29.6382Z" fill="#464E5E"/>
<path d="M348.517 0.780031C348.517 3.37987 349.297 5.84971 349.557 8.44956C349.817 11.0494 349.297 13.7792 348.647 16.2491C347.217 21.3188 344.877 26.1285 342.927 30.9382C342.797 31.3281 343.447 31.5881 343.577 31.0682C345.657 26.1285 347.997 21.1888 349.427 16.1191C350.077 13.7792 350.467 11.3094 350.337 8.83952C350.207 6.10968 349.297 3.50986 349.297 0.780031C349.297 0.390055 348.647 0.390055 348.647 0.780031H348.517Z" fill="#464E5E"/>
<path d="M352.678 10.0094C351.768 12.2193 350.729 14.2992 349.819 16.509C349.039 18.3289 348.259 20.6688 346.699 22.0987C346.309 22.3587 346.829 22.8787 347.219 22.6187C348.779 21.3188 349.559 18.9789 350.338 17.159C351.378 14.9491 352.288 12.6093 353.328 10.3994C353.458 10.0095 352.938 9.61945 352.678 10.0094Z" fill="#464E5E"/>
<path d="M372.177 46.2773C373.087 43.1574 373.607 40.1676 372.827 37.0478C372.047 34.058 370.487 31.1982 369.187 28.3383C366.847 22.8787 364.637 15.7291 368.537 10.5294C368.407 10.5294 368.147 10.5294 368.017 10.5294C370.487 13.1293 372.047 16.2491 373.477 19.4989C375.037 23.0087 376.596 26.5184 377.376 30.1582C378.156 33.928 378.027 37.6978 376.857 41.3375C375.817 44.8473 374.127 48.2271 372.437 51.4769C372.177 51.8669 372.827 52.2569 373.087 51.8669C374.777 48.4871 376.596 45.1073 377.636 41.4675C378.676 37.8278 378.936 34.058 378.157 30.2882C377.377 26.3884 375.817 22.6187 374.127 19.1089C372.697 15.8591 371.007 12.6093 368.537 10.0094C368.407 9.87944 368.147 10.0094 368.017 10.0094C364.507 14.8191 365.677 21.3188 367.757 26.3884C368.927 29.3783 370.487 32.2381 371.657 35.3579C372.307 36.9178 372.697 38.6077 372.697 40.4276C372.697 42.3775 372.177 44.1974 371.657 46.0173C371.657 46.4072 372.177 46.6672 372.307 46.1473L372.177 46.2773Z" fill="#464E5E"/>
<path d="M373.085 51.867C382.834 44.3275 386.474 30.9383 383.354 19.239C383.354 18.979 382.965 18.849 382.705 19.109C379.715 22.3588 378.025 26.5185 377.505 30.8083C377.505 31.1983 378.155 31.1983 378.155 30.8083C378.675 26.6485 380.365 22.7488 383.224 19.629C383.094 19.629 382.834 19.629 382.574 19.499C385.694 30.9383 381.924 44.0675 372.435 51.4771C372.045 51.737 372.565 52.257 372.955 51.997L373.085 51.867Z" fill="#464E5E"/>
<path d="M382.965 37.3076C384.525 34.4477 386.475 31.9779 388.815 29.638C391.155 27.4282 393.885 25.2183 397.265 25.2183C397.265 25.0883 397.004 24.9584 396.874 24.8284C395.185 30.678 392.975 36.3976 388.815 40.9474C385.045 45.1071 380.366 48.2269 375.816 51.3467C375.426 51.6067 375.816 52.2567 376.206 51.9967C380.886 48.7469 385.695 45.4971 389.595 41.2073C393.755 36.5276 395.965 30.938 397.655 24.9583C397.655 24.6983 397.654 24.5684 397.265 24.5684C394.015 24.5684 391.155 26.6482 388.815 28.7281C386.215 31.068 384.005 33.9278 382.315 36.9176C382.055 37.3076 382.705 37.6975 382.965 37.3076Z" fill="#464E5E"/>
<path d="M382.185 47.8372C386.214 46.1473 390.114 44.3275 393.884 41.7276C395.704 40.4277 397.654 39.3878 399.864 38.9978C402.203 38.4778 404.543 38.4778 406.753 38.4778C406.753 38.3478 406.493 38.0878 406.493 37.9578C401.033 49.3971 387.514 51.997 376.595 55.5068C376.205 55.6368 376.335 56.2867 376.725 56.1567C387.774 52.6469 401.553 49.9171 407.013 38.3478C407.013 38.0879 407.013 37.8279 406.753 37.8279C402.333 37.8279 398.174 38.0878 394.404 40.6877C392.584 41.9876 390.764 43.2875 388.684 44.3275C386.474 45.4974 384.265 46.4073 382.055 47.3173C381.665 47.4473 381.795 48.0972 382.185 47.9672V47.8372Z" fill="#464E5E"/>
<path d="M377.375 55.8966C381.925 58.2365 386.995 57.3265 391.804 56.5466C397.654 55.6366 403.504 55.2467 409.353 55.1167C409.613 55.1167 409.743 54.8567 409.743 54.7267C409.223 52.5168 407.273 51.0869 405.453 49.917C403.244 48.6171 400.774 47.8371 398.174 47.5771C397.784 47.5771 397.784 48.2271 398.174 48.2271C400.514 48.4871 402.724 49.137 404.803 50.307C406.623 51.3469 408.573 52.7768 409.093 54.8567C409.093 54.7267 409.353 54.5967 409.483 54.4667C404.153 54.4667 398.694 54.9867 393.364 55.6366C388.294 56.2866 382.835 57.7165 378.025 55.2467C377.635 54.9867 377.245 55.6366 377.635 55.8966H377.375Z" fill="#464E5E"/>
<path d="M394.015 56.2867C399.735 56.5467 404.674 60.5764 406.884 65.7761C407.014 65.6461 407.144 65.3861 407.274 65.2561C402.334 64.3462 397.915 61.4864 393.105 60.0564C388.555 58.6265 383.486 58.7566 379.456 56.0267C379.066 55.7667 378.676 56.4167 379.066 56.6767C383.096 59.4065 388.035 59.2765 392.585 60.5764C397.525 62.0064 401.944 64.8661 407.144 65.9061C407.404 65.9061 407.664 65.6461 407.534 65.3861C405.194 60.0564 399.995 55.8967 394.015 55.6367C393.625 55.6367 393.625 56.2867 394.015 56.2867Z" fill="#464E5E"/>
<path d="M391.416 38.8675C395.185 36.6576 398.825 34.5778 402.595 32.3679C402.465 32.2379 402.205 32.1079 402.075 31.9779C401.295 34.8378 399.605 37.6976 396.875 39.1275C396.485 39.3875 396.875 39.9074 397.265 39.7775C400.125 38.2175 401.945 35.2277 402.855 32.1079C402.855 31.8479 402.595 31.5879 402.335 31.7179C398.565 33.9278 394.925 36.0077 391.156 38.2175C390.766 38.4775 391.155 38.9975 391.545 38.8675H391.416Z" fill="#464E5E"/>
<path d="M350.859 14.4291C350.859 14.5591 350.729 14.689 350.729 14.819C350.729 14.949 350.858 15.079 350.988 14.819C350.988 14.819 351.119 14.5591 351.119 14.4291C351.119 14.2991 351.118 14.1691 351.248 14.0391C351.248 13.7791 351.509 13.3891 351.509 13.1292C351.379 13.3891 351.249 13.6491 351.119 14.0391C351.119 14.1691 351.118 14.2991 350.988 14.4291H350.859Z" fill="#464E5E"/>
<path d="M348.26 19.6287C348 20.1487 347.74 20.6686 347.35 21.1886C347.35 21.1886 347.35 21.1886 347.35 21.3186C347.35 21.4486 347.09 21.5785 347.09 21.7085C347.09 21.8385 347.09 22.0985 347.35 21.9685C348.13 20.9286 348.78 20.0187 349.3 18.8487C349.3 18.7187 349.3 18.5887 349.04 18.7187C349.3 18.3288 349.43 17.9388 349.69 17.5488C349.3 18.0688 348.91 18.7187 348.65 19.3687C349.04 17.9388 349.3 16.5089 349.69 14.949C349.3 16.5089 348.78 18.0688 348.39 19.6287C348.39 19.6287 348.39 19.8887 348.52 19.8887L348.26 19.6287Z" fill="#464E5E"/>
<path d="M349.039 1.94981C349.039 2.46978 349.039 2.98973 349.039 3.50969C349.039 3.63969 349.299 3.76968 349.299 3.50969C349.299 2.98973 349.299 2.46978 349.299 1.94981C349.299 1.68983 349.299 1.42984 349.429 1.16985C349.429 0.909869 349.559 0.649877 349.559 0.389893C349.559 0.389893 349.559 0.389893 349.429 0.389893C349.299 0.649877 349.169 0.909869 349.169 1.16985C349.169 1.42984 349.169 1.68983 349.039 1.94981Z" fill="#464E5E"/>
<path d="M346.178 23.9186C346.178 23.9186 346.178 24.1786 346.308 23.9186C346.438 23.7886 346.568 23.5286 346.698 23.2686C346.828 23.0087 346.958 22.8787 347.088 22.6187C347.348 22.2287 347.608 21.7087 347.868 21.3188C347.608 21.5787 347.478 21.8387 347.218 22.2287C347.218 22.3587 346.958 22.4887 346.958 22.6187C346.958 22.7487 346.698 22.8786 346.698 23.0086C346.698 23.0086 346.698 23.0086 346.698 23.1386C346.568 23.3986 346.438 23.5286 346.308 23.7886L346.178 23.9186Z" fill="#464E5E"/>
<path d="M343.059 34.8379C343.059 34.8379 342.929 35.0979 342.799 35.2279C342.669 35.3579 342.799 35.6179 343.059 35.4879C343.449 34.9679 343.839 34.318 344.359 33.928C344.359 33.928 344.359 33.798 344.359 33.668C344.359 33.668 344.489 33.538 344.619 33.408C345.139 33.018 345.659 32.6281 346.179 32.3681C345.529 32.6281 345.009 33.018 344.359 33.408C343.839 33.798 343.319 34.188 342.929 34.7079V34.9679L343.059 34.8379Z" fill="#464E5E"/>
<path d="M340.72 28.4683C340.72 28.4683 340.59 28.4683 340.72 28.5983C340.72 28.9883 340.72 29.2483 340.85 29.6382C340.85 29.7682 340.98 29.7682 341.11 29.7682C341.11 29.7682 341.37 29.7682 341.37 29.6382C341.37 29.1183 341.37 28.4683 341.11 27.9483C340.98 27.4284 340.72 26.9084 340.46 26.3884C340.72 27.0384 340.98 27.6883 341.11 28.3383L340.72 28.4683Z" fill="#464E5E"/>
<path d="M334.869 49.137C334.999 49.137 335.259 49.137 335.389 49.137C335.389 49.137 335.519 49.137 335.649 49.137C335.649 49.137 335.649 49.137 335.779 49.137H336.039C336.039 49.137 336.039 49.0071 336.039 48.8771C336.039 48.8771 336.299 48.8771 336.299 48.6171C336.299 48.6171 336.429 48.6171 336.559 48.6171C336.559 48.6171 336.559 48.4871 336.559 48.3571C336.559 48.3571 336.559 48.3571 336.689 48.3571C337.469 48.0971 338.119 47.4472 338.509 46.6672C339.029 45.7573 339.679 44.7173 339.939 43.6774C339.419 44.5873 338.899 45.4973 338.379 46.2772C338.379 46.2772 338.379 46.4072 338.249 46.5372C338.249 46.5372 338.119 46.5372 337.989 46.5372C337.599 47.0572 337.079 47.5771 336.429 47.9671C336.429 47.9671 336.429 47.9671 336.429 48.0971C336.429 48.0971 336.429 48.0971 336.299 48.0971V47.8371C336.299 47.8371 336.169 47.8371 336.039 47.8371C336.039 47.8371 336.039 47.8371 336.039 47.9671C336.039 47.9671 336.039 47.9671 336.039 48.0971C336.039 48.0971 335.909 48.2271 336.039 48.3571C336.039 48.3571 335.909 48.4871 336.039 48.6171C336.039 48.6171 335.909 48.7471 335.909 48.8771C335.909 48.8771 335.779 48.8771 335.649 48.8771C335.389 48.8771 335.519 49.267 335.649 49.267L334.869 49.137Z" fill="#464E5E"/>
<path d="M373.737 51.4768C374.127 50.6968 374.387 49.7868 374.777 49.0069V48.8769C374.777 48.8769 374.777 48.7469 374.907 48.6169C375.167 48.0969 375.427 47.447 375.687 46.797C376.206 45.6271 376.597 44.3272 376.857 43.1572C376.467 44.3272 376.077 45.4971 375.557 46.667C375.297 47.057 375.037 47.447 374.907 47.8369C374.647 48.3569 374.387 48.7469 374.127 49.2669V49.3969C373.997 49.6569 373.867 49.7868 373.737 50.0468C373.477 50.3068 373.347 50.6968 373.217 50.9568C373.217 51.2167 373.347 51.3467 373.477 51.2168C373.477 51.2168 373.477 51.2167 373.477 51.0868C373.477 51.0868 373.477 51.0868 373.477 51.2168C373.477 51.4767 373.737 51.6067 373.737 51.4768Z" fill="#464E5E"/>
<path d="M372.307 51.7367C372.307 51.8667 372.567 51.9967 372.567 51.7367C372.567 51.2167 372.696 50.6968 372.826 50.1768V50.0468C372.826 50.0468 372.826 50.0468 372.826 49.9168C372.826 49.6569 372.827 49.3969 372.957 49.1369C372.957 49.3969 372.696 49.5269 372.696 49.7868C372.696 50.0468 372.566 50.3068 372.436 50.4368V50.5668C372.436 50.9568 372.436 51.2167 372.436 51.6067L372.307 51.7367Z" fill="#464E5E"/>
<path d="M375.037 51.2169C375.037 51.2169 375.037 51.2169 375.167 51.2169C375.167 51.2169 375.166 51.2169 375.296 51.0869C375.296 51.0869 375.297 51.0869 375.167 51.0869C375.167 51.0869 375.167 51.0869 375.037 51.0869C375.037 51.0869 374.776 51.2169 374.646 51.3469C374.646 51.3469 374.646 51.4769 374.646 51.6069H374.777L375.037 51.2169Z" fill="#464E5E"/>
<path d="M382.838 47.1872C383.098 47.1872 383.358 47.0572 383.488 46.9272C383.618 46.9272 383.748 46.9272 383.878 46.6672C384.008 46.6672 384.138 46.6672 384.268 46.4072C384.528 46.4072 384.658 46.1472 384.918 46.0172C385.178 46.0172 385.438 45.8872 385.698 45.7572C386.218 45.4973 386.868 45.2373 387.388 44.9773V44.8473C386.738 45.1073 386.218 45.2373 385.568 45.4973C385.308 45.4973 384.918 45.6272 384.658 45.7572C384.918 45.3673 385.308 44.9773 385.568 44.5873C385.048 45.1073 384.528 45.4973 384.138 46.0172C384.138 46.0172 383.878 46.0172 383.878 46.1472C383.878 46.1472 383.878 46.2772 383.878 46.4072C383.878 46.4072 383.878 46.4072 383.748 46.4072C383.748 46.4072 383.618 46.4072 383.488 46.4072C383.228 46.4072 382.968 46.4072 382.838 46.6672C382.708 46.7972 382.838 47.0572 383.098 46.9272L382.838 47.1872Z" fill="#464E5E"/>
<path d="M391.936 38.2177C392.196 38.2177 392.456 37.9577 392.716 37.8277C392.716 37.8277 392.716 37.6977 392.716 37.5677C392.976 37.5677 393.236 37.4377 393.496 37.3077C394.016 37.0478 394.666 36.6578 395.186 36.3978V36.2678C394.536 36.5278 393.886 36.7878 393.236 37.0478C392.976 37.0478 392.586 37.3077 392.326 37.3077C392.066 37.3077 391.806 37.5677 391.676 37.9577C391.676 38.2177 391.676 38.3477 391.936 38.2177Z" fill="#464E5E"/>
<path d="M383.356 35.8778C383.746 35.3578 384.006 34.8378 384.396 34.3178C384.396 34.3178 384.396 34.3178 384.396 34.1878C384.396 34.1878 384.396 34.1878 384.526 34.0578C385.046 33.5379 385.566 33.0179 385.956 32.498C384.916 33.5379 383.486 34.3179 383.096 35.8778C383.096 36.1377 383.356 36.2677 383.486 36.0077L383.356 35.8778Z" fill="#464E5E"/>
<path d="M377.636 29.898C377.636 30.158 378.026 30.158 378.026 29.898C378.026 29.6381 378.026 29.3781 378.026 29.2481C378.026 28.9881 378.026 28.7281 378.026 28.5981C378.286 28.0782 378.416 27.4282 378.676 26.9082C378.416 27.4282 378.026 28.0782 377.766 28.5981C377.506 29.1181 377.376 29.638 377.506 30.158L377.636 29.898Z" fill="#464E5E"/>
<path d="M383.098 56.9365C382.578 56.9365 381.928 56.9365 381.408 57.0665C381.148 57.0665 381.148 57.5864 381.408 57.5864C384.008 57.4564 386.477 57.1965 389.077 56.5465V56.4165C387.127 56.6765 385.178 56.8065 383.228 56.9365H383.098Z" fill="#464E5E"/>
<path d="M401.036 45.7573C401.166 45.6273 401.296 45.4973 401.426 45.3673C400.906 45.7573 400.386 46.2773 399.866 46.6673C399.606 46.9272 399.346 47.0572 399.216 47.3172C398.956 47.4472 398.826 47.7072 398.566 47.7072C398.306 47.7072 398.436 48.2272 398.566 48.0972C398.566 48.0972 398.696 48.0972 398.826 48.0972C398.826 48.0972 398.956 48.2272 399.086 48.0972C399.476 47.8372 399.866 47.4472 400.126 47.0572C400.516 46.6672 400.776 46.2773 401.036 45.8873V45.7573Z" fill="#464E5E"/>
<path d="M397.654 55.5065H397.394C397.394 55.5065 397.394 55.5065 397.264 55.5065C396.744 55.5065 396.094 55.5066 395.574 55.6365C395.314 55.6365 395.314 56.0265 395.574 56.1565C397.134 56.5465 398.564 55.5066 399.993 55.3766V55.2466C399.214 55.2466 398.564 55.3766 397.784 55.6365L397.654 55.5065Z" fill="#464E5E"/>
<path d="M371.268 54.2065C371.008 54.5965 370.878 54.9865 370.618 55.3765H370.358C370.358 55.5065 370.098 55.7665 370.098 55.8965V56.2864C370.488 56.2864 370.748 55.8964 370.878 55.6365C371.008 55.2465 371.268 54.7265 371.398 54.2065H371.268Z" fill="#464E5E"/>
<path d="M379.977 55.3766C380.107 55.3766 380.237 55.3766 380.367 55.2466C381.147 54.9866 381.927 54.5966 382.707 54.2066V54.0767C381.927 54.3366 381.147 54.5966 380.367 54.8566C380.367 54.8566 380.367 54.8566 380.237 54.8566C380.237 54.8566 380.237 54.8566 380.107 54.8566C379.847 54.8566 379.587 55.1166 379.327 55.1166C379.327 55.1166 379.197 55.1166 379.067 55.1166C378.547 55.1166 378.027 55.1166 377.637 55.2466C377.247 55.2466 376.727 55.2466 376.337 55.5065C376.337 55.5065 376.337 55.5065 376.337 55.6365C376.207 55.6365 376.077 55.6365 375.817 55.6365C375.297 55.6365 374.777 55.3766 374.127 55.2466C375.167 55.8965 376.467 56.0265 377.637 55.8965C378.157 55.8965 378.547 55.8965 379.067 55.7665C379.457 55.6365 379.847 55.3766 380.107 55.1166L379.977 55.3766Z" fill="#464E5E"/>
<path d="M358.918 64.996C359.827 64.6061 360.607 63.8261 361.387 63.3061C362.167 62.6562 363.077 62.1362 363.857 61.4862C362.947 62.0062 362.167 62.5262 361.257 63.1762C360.477 63.6961 359.697 64.3461 358.787 64.736C358.527 64.866 358.787 65.256 359.047 65.126L358.918 64.996Z" fill="#464E5E"/>
<path d="M356.319 65.776C356.319 65.776 356.449 65.776 356.579 65.776C356.579 65.776 356.709 65.646 356.709 65.516C356.709 65.516 356.839 65.516 356.969 65.516C357.099 65.516 357.099 65.256 356.969 65.256C356.969 65.256 357.099 65.256 357.229 65.256C357.359 65.256 357.619 65.256 357.749 65.256C357.879 65.256 358.139 65.2561 358.269 65.1261V64.8661C358.269 64.8661 358.139 64.8661 358.009 64.8661C358.009 64.8661 357.879 64.8661 357.749 64.8661C357.619 64.8661 357.489 64.8661 357.229 64.8661C357.099 64.8661 356.969 64.8661 356.709 64.8661C356.579 64.8661 356.449 64.8661 356.319 64.8661V64.7361C356.189 64.7361 355.929 64.7361 355.799 64.7361C355.799 64.7361 355.669 64.9961 355.799 64.9961C355.799 64.9961 355.669 64.9961 355.669 65.256C355.539 65.256 355.409 65.256 355.279 65.256C355.149 65.256 355.019 65.3861 355.149 65.516H354.889C354.889 65.516 354.759 65.6461 354.889 65.776C354.889 65.776 354.759 65.776 354.629 65.776C354.629 65.776 354.369 65.776 354.369 65.906C354.369 65.906 354.369 66.166 354.499 66.166C355.149 66.166 355.669 66.426 356.319 66.426C356.319 66.426 356.579 66.426 356.579 66.296L356.319 65.776Z" fill="#464E5E"/>
<path d="M426.125 129.472C423.915 128.562 421.575 128.042 419.365 127.652C419.236 127.652 419.106 127.652 419.106 127.782C417.546 126.872 415.986 126.092 414.426 125.312C412.476 124.402 410.526 123.362 408.706 122.192C410.396 123.622 412.346 124.532 414.296 125.442C416.245 126.352 418.196 127.392 420.015 128.562C420.015 128.562 420.145 128.562 420.275 128.562C420.925 129.082 421.445 129.732 421.965 130.382C421.965 130.512 422.225 130.382 422.225 130.382C422.875 131.032 423.525 131.812 424.175 132.332C424.175 132.332 424.305 132.332 424.175 132.202C423.915 131.812 423.525 131.422 423.135 131.032L422.095 129.862C422.095 129.862 421.965 129.732 421.835 129.602C421.835 129.602 421.835 129.602 421.835 129.472L421.445 129.082C421.185 128.822 420.925 128.562 420.665 128.302C422.485 128.692 424.305 129.082 426.125 129.472C426.125 129.472 426.125 129.472 426.125 129.342V129.472Z" fill="#464E5E"/>
<path d="M397.527 106.204C397.527 106.204 397.527 106.204 397.657 106.204C398.307 106.594 398.957 106.854 399.607 106.984C399.607 106.984 399.737 106.984 399.867 106.984C400.777 107.373 401.687 107.763 402.727 107.893C402.727 107.893 402.727 107.893 402.727 107.763C401.297 107.373 399.997 106.464 398.567 105.944C398.827 105.944 398.957 105.814 399.217 105.684C399.737 105.554 400.257 105.294 400.907 105.164C402.077 104.904 403.117 104.774 404.287 104.644V104.514C403.117 104.514 401.947 104.514 400.907 104.774C400.387 104.774 399.737 105.034 399.217 105.164C398.697 105.294 398.047 105.554 397.527 105.814C397.267 105.814 397.527 106.334 397.657 106.334L397.527 106.204Z" fill="#464E5E"/>
<path d="M378.807 107.503C378.807 107.503 378.807 107.503 378.677 107.503H378.547V107.633C378.547 107.633 378.677 107.633 378.807 107.633V107.503Z" fill="#464E5E"/>
<path d="M395.058 115.953C393.758 115.303 392.458 114.653 391.158 114.263C391.158 114.263 391.028 114.263 390.898 114.263C390.768 114.263 390.638 114.263 390.508 114.133C390.248 114.133 390.118 114.393 390.508 114.523C391.158 114.783 391.808 114.913 392.328 115.173C392.328 115.173 392.458 115.173 392.588 115.173C393.367 115.433 394.017 115.823 394.797 116.083C394.797 116.083 394.797 116.083 394.927 116.083C395.707 116.473 396.617 116.863 397.397 117.253C396.617 116.733 395.707 116.343 394.927 115.953H395.058Z" fill="#464E5E"/>
<path d="M382.318 123.362C382.318 123.362 382.318 123.232 382.318 123.102C381.408 122.712 380.498 122.192 379.588 121.802C379.328 121.802 379.198 122.062 379.458 122.192C379.458 122.192 379.458 122.192 379.328 122.192C379.328 122.452 379.328 122.712 379.328 122.842C379.328 123.102 379.328 123.362 379.588 123.492C379.718 123.882 379.848 124.402 380.108 124.792C380.498 125.702 381.018 126.482 381.668 127.132C381.148 126.352 380.758 125.572 380.368 124.792C380.368 124.532 380.108 124.142 380.108 123.882C380.108 123.882 380.108 123.622 380.108 123.492C380.108 123.362 380.108 123.232 380.108 122.972C380.108 122.972 380.108 122.842 380.108 122.712C380.108 122.712 380.108 122.712 380.108 122.582C380.628 122.712 381.148 122.842 381.538 123.102C382.578 123.492 383.488 124.012 384.528 124.402C384.528 124.402 384.528 124.402 384.528 124.272C383.878 123.752 383.098 123.492 382.318 123.102V123.362Z" fill="#464E5E"/>
<path d="M380.757 105.943C380.107 105.943 379.457 106.203 378.937 106.333C378.937 106.333 378.937 106.203 378.677 106.333C377.507 106.723 376.337 106.853 375.037 106.983C374.777 106.983 374.777 107.373 375.037 107.503C375.037 107.503 375.297 107.503 375.427 107.503C375.427 107.503 375.427 107.503 375.427 107.633C376.207 108.023 376.857 107.633 377.507 107.243C378.417 106.853 379.327 106.593 380.236 106.463C382.056 106.073 384.006 105.943 385.956 105.683V105.553C384.266 105.553 382.447 105.683 380.757 105.943Z" fill="#464E5E"/>
<path d="M357.489 104.903C356.839 104.254 356.319 103.474 355.669 102.694C355.019 102.044 354.239 101.914 353.459 101.784C353.199 101.784 353.069 102.044 353.329 102.304C353.849 102.564 354.239 102.954 354.759 103.344C354.759 103.344 354.759 103.344 354.759 103.474C354.759 103.474 354.889 103.474 355.019 103.474C355.669 104.124 356.319 104.904 357.099 105.423C357.099 105.423 357.229 105.423 357.359 105.423C358.659 106.723 359.959 108.023 361.519 109.063C360.089 107.763 358.529 106.333 357.229 104.903H357.489Z" fill="#464E5E"/>
<path d="M361.778 83.0648C359.308 83.5848 356.968 84.4947 354.758 85.9247C354.498 86.0546 354.758 86.5746 355.018 86.4446C355.148 86.4446 355.408 86.4446 355.538 86.4446C355.668 86.4446 355.928 86.4446 356.058 86.4446C356.448 86.4446 356.708 86.7046 357.098 86.7046C357.878 86.8346 358.528 86.9646 359.308 86.9646C359.308 86.9646 359.308 86.9646 359.308 86.8346C358.528 86.7046 357.618 86.4446 356.838 86.1846C356.448 86.0546 356.058 85.9246 355.668 85.7947C357.488 84.6247 359.438 83.7148 361.518 83.0648V82.9348L361.778 83.0648Z" fill="#464E5E"/>
<path d="M327.719 88.6545C327.589 88.6545 327.459 88.6545 327.199 88.6545C326.939 88.6545 326.549 88.6545 326.289 88.7845C325.119 88.9145 324.079 89.1745 322.909 89.5645C322.519 89.5645 322.129 89.8244 321.739 89.9544C321.739 89.8244 321.739 89.6945 321.479 89.6945C320.049 90.0844 318.619 90.3444 317.189 90.7344C317.189 90.7344 317.059 90.7344 316.929 90.7344C316.669 90.7344 316.669 91.2543 316.929 91.2543C317.189 91.2543 317.449 91.2543 317.709 91.2543C317.709 91.2543 317.969 91.2543 318.099 91.2543C318.099 91.2543 318.099 91.5143 318.359 91.5143C318.619 91.5143 318.749 91.5143 319.009 91.3843C319.529 91.6443 320.179 91.3844 320.569 91.1244C321.349 90.7344 322.259 90.3444 323.039 89.9544C324.599 89.3045 326.289 88.9145 327.979 88.5245V88.3945C327.979 88.3945 327.849 88.3945 327.719 88.3945V88.6545Z" fill="#464E5E"/>
<path d="M333.438 112.963C333.308 112.963 333.048 112.963 332.918 112.963V112.833C332.268 112.833 331.488 112.573 330.838 112.443C330.838 112.443 330.708 112.443 330.578 112.573C330.318 112.573 330.318 112.963 330.578 113.093C330.708 113.093 330.838 113.223 330.968 113.223C330.968 113.223 330.838 113.483 330.968 113.483C331.228 114.003 331.488 114.393 331.878 114.913C331.878 114.913 331.878 114.913 332.008 114.913C332.138 115.173 332.268 115.433 332.398 115.693C332.658 116.083 332.788 116.473 333.048 116.733C333.308 116.993 333.437 117.383 333.697 117.643C333.567 117.253 333.308 116.993 333.048 116.603C332.918 116.213 332.658 115.823 332.528 115.563C332.138 114.783 331.748 114.003 331.358 113.353C331.358 113.353 331.618 113.353 331.748 113.353C332.268 113.353 332.788 113.353 333.308 113.353C334.348 113.353 335.257 113.873 336.297 114.263C336.297 114.263 336.427 114.263 336.297 114.133C335.517 113.483 334.478 113.353 333.568 113.093L333.438 112.963Z" fill="#464E5E"/>
<path d="M306.662 93.5943C306.142 93.2043 305.491 93.0743 304.841 93.2043C304.581 93.2043 304.581 93.5943 304.841 93.7243C305.231 93.9842 305.622 94.1142 306.012 94.3742C306.792 95.2842 307.571 96.0641 308.481 96.8441H308.741C309.651 97.754 310.561 98.6639 311.601 99.3139C311.601 99.3139 311.731 99.3139 311.601 99.1839C310.431 98.014 309.131 96.8441 308.221 95.5441C307.701 94.8942 307.311 94.1142 306.791 93.5943H306.662Z" fill="#464E5E"/>
<path d="M314.333 74.3555C316.542 74.3555 318.752 74.3555 320.832 74.0955V73.9655C318.622 73.9655 316.283 73.9655 314.073 73.9655C312.903 73.9655 311.863 73.9655 310.693 73.9655C310.173 73.9655 309.783 73.9655 309.263 73.9655C312.123 72.1457 314.592 69.4158 317.452 67.4659V67.3359C314.982 68.7659 312.773 70.8457 310.433 72.6656C310.433 72.6656 310.433 72.6656 310.303 72.6656C309.003 73.3156 307.703 74.0955 306.533 74.8755C306.273 75.0055 306.533 75.5255 306.663 75.3955C306.923 75.3955 307.183 75.1355 307.443 75.0055C307.443 75.0055 307.443 75.1355 307.703 75.0055C308.613 74.8755 309.653 74.7455 310.563 74.7455C310.693 74.7455 310.823 74.7455 310.823 74.4855C310.823 74.4855 310.953 74.4855 311.083 74.4855C312.253 74.4855 313.293 74.4855 314.463 74.4855L314.333 74.3555Z" fill="#464E5E"/>
<path d="M286.382 87.8745C284.692 87.6146 283.002 87.3546 281.312 87.2246C281.832 86.9646 282.222 86.5746 282.742 86.3146C283.392 85.9246 284.172 85.4047 284.822 85.0147C287.812 83.4548 290.802 82.0249 293.922 80.725V80.595C288.332 82.2849 283.132 85.1447 277.933 88.0045C277.543 88.2645 277.933 88.7844 278.192 88.6545C278.192 88.6545 278.453 88.6545 278.583 88.5245C278.583 88.6545 278.843 88.9144 278.973 88.7845C279.103 88.7845 279.232 88.6545 279.492 88.5245C279.752 88.5245 280.013 88.5245 280.272 88.5245C282.092 88.5245 283.782 88.5245 285.602 88.5245C285.732 88.5245 285.862 88.5245 285.862 88.2645C286.122 88.2645 286.252 88.2645 286.512 88.2645C288.722 88.5245 290.932 88.9144 293.012 88.6545V88.5245C290.672 88.3945 288.462 88.0045 286.252 87.6145L286.382 87.8745Z" fill="#464E5E"/>
<path d="M259.604 85.9246C258.434 86.3146 257.395 86.7046 256.225 87.0945C253.495 88.1345 250.895 89.1744 248.165 90.2143C248.165 90.2143 248.165 90.2143 248.035 90.2143C246.995 90.6043 245.825 90.8643 244.655 91.2543C243.095 91.6442 241.536 92.0342 239.976 92.5542C239.976 92.5542 239.846 92.5542 239.846 92.8142C236.206 93.2042 232.566 93.8541 229.056 94.5041C230.746 91.6442 232.826 88.9144 234.906 86.4446C235.166 86.1846 235.426 85.7946 235.686 85.5346C237.506 83.4548 239.456 81.6349 241.666 79.945C235.816 83.5848 231.656 89.6944 227.236 95.0241C227.236 95.0241 227.106 95.024 227.106 95.284C226.976 95.414 226.847 95.544 226.717 95.804C226.457 96.064 226.846 96.454 227.106 96.194C228.016 95.934 228.796 95.674 229.706 95.284C233.086 94.6341 236.466 93.9841 239.846 93.2041C239.846 93.2041 239.846 93.3341 240.106 93.3341C241.795 93.0742 243.356 92.6842 244.916 92.1642C244.916 92.2942 244.915 92.5542 245.175 92.4242C250.245 90.9943 254.795 88.1345 259.604 86.1846V86.0546V85.9246Z" fill="#464E5E"/>
<path d="M152.36 117.903C149.371 117.123 145.991 117.123 143.001 117.253C141.831 117.253 140.791 117.253 139.621 117.253C139.231 117.253 138.841 117.253 138.581 117.253C138.191 117.253 137.801 117.253 137.541 117.253C137.541 117.253 137.411 117.253 137.411 117.513C135.981 117.513 134.422 117.513 132.992 117.513C132.602 117.513 132.602 118.163 132.992 118.163C133.122 118.163 133.382 118.163 133.512 118.163C133.512 118.163 133.512 118.293 133.642 118.423C135.072 118.683 136.372 119.203 137.672 119.723C138.711 120.243 139.751 120.892 140.921 121.282C143.261 122.322 145.731 123.362 148.331 124.012C148.331 124.012 148.331 124.012 148.331 123.882C145.861 122.712 143.261 121.802 140.661 120.632C140.141 120.372 139.621 120.113 139.231 119.853C138.321 119.333 137.541 118.683 136.632 118.293C138.061 118.293 139.491 118.293 140.921 118.163C142.481 118.293 144.041 118.163 145.601 118.163C147.161 118.163 148.591 118.163 150.151 118.293C153.27 118.423 156.39 118.813 159.38 118.813C159.38 118.813 159.38 118.813 159.38 118.683C157.04 118.163 154.7 118.033 152.231 117.903H152.36Z" fill="#464E5E"/>
<path d="M308.611 60.5763C307.442 60.5763 306.271 60.5763 305.101 60.8362C304.321 60.8362 303.412 60.8362 302.632 60.8362C300.422 60.8362 298.342 60.7062 296.132 60.7062V60.8362C298.342 61.0962 300.552 61.2262 302.762 61.3562C303.802 61.3562 304.842 61.4862 305.881 61.4862C304.582 62.1362 303.412 63.1761 302.242 63.956C300.162 65.386 298.082 66.6859 296.002 67.9858C298.082 66.8159 300.162 65.646 302.112 64.346C302.632 63.9561 303.152 63.5661 303.672 63.1761C303.672 63.1761 303.802 63.1761 303.932 63.1761C305.232 62.5262 306.401 61.7462 307.701 60.9662C307.961 60.9662 308.221 60.9662 308.351 60.7062C308.611 60.7062 308.611 60.1863 308.351 60.1863L308.611 60.5763Z" fill="#464E5E"/>
<path d="M303.67 120.502C303.54 120.502 303.41 120.502 303.15 120.502C302.11 119.982 300.94 119.593 299.9 119.333C298.73 118.943 297.431 118.553 296.261 118.293C293.921 117.643 291.581 117.123 289.111 116.993C289.111 116.993 289.111 116.993 289.111 117.123C291.451 117.643 293.791 118.163 296.131 118.813C297.301 119.073 298.471 119.463 299.511 119.852C300.031 119.982 300.42 120.242 300.94 120.372C298.341 120.632 295.741 121.022 293.141 121.672C292.361 121.802 291.451 122.062 290.671 122.192V122.322C295.091 121.672 299.38 121.022 303.8 121.022C304.19 121.022 304.19 120.502 303.8 120.502H303.67Z" fill="#464E5E"/>
<path d="M278.064 83.9749C276.114 84.7548 274.164 85.7947 272.214 86.8347C271.694 87.0946 271.174 87.3546 270.654 87.6146C269.874 87.8746 269.094 88.1346 268.314 88.3946C267.795 88.5246 267.274 88.6545 266.754 88.7845C266.494 88.7845 266.235 88.9145 265.975 89.0445C265.715 89.0445 265.454 89.0445 265.194 89.3045C265.065 89.3045 265.194 89.5645 265.194 89.6945C265.454 89.6945 265.715 89.6945 265.975 89.5645C266.105 89.5645 266.235 89.5645 266.365 89.5645C266.365 89.5645 266.364 89.5645 266.494 89.5645C267.144 89.5645 267.665 89.3045 268.314 89.1745C268.444 89.1745 268.574 89.1745 268.834 89.1745C268.834 89.1745 268.834 89.4345 269.094 89.3045C269.224 89.3045 269.484 89.3045 269.614 89.1745C269.614 89.1745 269.614 89.3045 269.744 89.3045C269.874 89.3045 270.004 89.3045 270.264 89.3045C270.394 89.3045 270.524 89.3045 270.654 89.0445C270.914 88.9145 271.174 88.6546 271.434 88.3946C271.564 88.3946 271.694 88.2646 271.954 88.1346C272.864 87.6146 273.774 86.9647 274.554 86.3147C275.724 85.6647 276.894 85.0148 278.064 84.3648V84.2348V83.9749Z" fill="#464E5E"/>
</g>
<defs>
<filter id="filter0_i_221_27" x="0" y="0" width="434.617" height="143" filterUnits="userSpaceOnUse" color-interpolation-filters="sRGB">
<feFlood flood-opacity="0" result="BackgroundImageFix"/>
<feBlend mode="normal" in="SourceGraphic" in2="BackgroundImageFix" result="shape"/>
<feColorMatrix in="SourceAlpha" type="matrix" values="0 0 0 0 0 0 0 0 0 0 0 0 0 0 0 0 0 0 127 0" result="hardAlpha"/>
<feOffset dy="4"/>
<feGaussianBlur stdDeviation="2"/>
<feComposite in2="hardAlpha" operator="arithmetic" k2="-1" k3="1"/>
<feColorMatrix type="matrix" values="0 0 0 0 0.0860205 0 0 0 0 0.106399 0 0 0 0 0.152979 0 0 0 0.55 0"/>
<feBlend mode="normal" in2="shape" result="effect1_innerShadow_221_27"/>
</filter>
</defs>
</svg>
